<mxfile host="65bd71144e" scale="10" border="100">
    <diagram id="_B5iztKawwdR23kvrqeL" name="Page-1">
        <mxGraphModel dx="-2204" dy="1778" grid="1" gridSize="10" guides="1" tooltips="1" connect="1" arrows="1" fold="1" page="1" pageScale="1" pageWidth="850" pageHeight="1100" math="0" shadow="0">
            <root>
                <mxCell id="0"/>
                <mxCell id="1" parent="0"/>
                <mxCell id="2" value="" style="rounded=0;whiteSpace=wrap;html=1;fillColor=#dae8fc;strokeColor=#6c8ebf;shadow=0;" parent="1" vertex="1">
                    <mxGeometry x="2720" y="-910" width="390" height="180" as="geometry"/>
                </mxCell>
                <mxCell id="3" value="SOAPtoREST&lt;br&gt;Middleware" style="rounded=1;whiteSpace=wrap;html=1;fontSize=14;strokeColor=#b85450;fillColor=#f8cecc;" parent="1" vertex="1">
                    <mxGeometry x="2729" y="-900" width="100" height="160" as="geometry"/>
                </mxCell>
                <mxCell id="4" value="Handler&lt;br&gt;" style="rounded=1;whiteSpace=wrap;html=1;fontSize=14;strokeColor=#d6b656;fillColor=#fff2cc;" parent="1" vertex="1">
                    <mxGeometry x="3021" y="-900" width="80" height="160" as="geometry"/>
                </mxCell>
                <mxCell id="8" value="middleware" style="rounded=1;whiteSpace=wrap;html=1;fontSize=14;strokeColor=#6c8ebf;fillColor=default;" parent="1" vertex="1">
                    <mxGeometry x="2918" y="-900" width="80" height="160" as="geometry"/>
                </mxCell>
                <mxCell id="9" value="..." style="rounded=1;whiteSpace=wrap;html=1;fontSize=14;strokeColor=#6c8ebf;fillColor=default;" parent="1" vertex="1">
                    <mxGeometry x="2880" y="-900" width="30" height="160" as="geometry"/>
                </mxCell>
                <mxCell id="10" value="..." style="rounded=1;whiteSpace=wrap;html=1;fontSize=14;strokeColor=#6c8ebf;fillColor=default;" parent="1" vertex="1">
                    <mxGeometry x="2843" y="-900" width="30" height="160" as="geometry"/>
                </mxCell>
                <mxCell id="11" value="" style="shape=flexArrow;endArrow=classic;html=1;" parent="1" edge="1">
                    <mxGeometry width="50" height="50" relative="1" as="geometry">
                        <mxPoint x="2640" y="-850" as="sourcePoint"/>
                        <mxPoint x="2700" y="-850" as="targetPoint"/>
                    </mxGeometry>
                </mxCell>
                <mxCell id="13" value="" style="shape=flexArrow;endArrow=classic;html=1;" parent="1" edge="1">
                    <mxGeometry width="50" height="50" relative="1" as="geometry">
                        <mxPoint x="2700" y="-800" as="sourcePoint"/>
                        <mxPoint x="2640" y="-800" as="targetPoint"/>
                    </mxGeometry>
                </mxCell>
                <mxCell id="17" value="" style="shape=flexArrow;endArrow=classic;html=1;fillColor=#f5f5f5;strokeColor=#666666;" parent="1" target="19" edge="1">
                    <mxGeometry width="50" height="50" relative="1" as="geometry">
                        <mxPoint x="3020" y="-770" as="sourcePoint"/>
                        <mxPoint x="2820" y="-770.34" as="targetPoint"/>
                    </mxGeometry>
                </mxCell>
                <mxCell id="19" value="&lt;font style=&quot;font-size: 12px;&quot;&gt;RESTtoSOAP&lt;br&gt;Conversion&lt;br&gt;&lt;/font&gt;" style="rounded=1;whiteSpace=wrap;html=1;fontSize=14;strokeColor=#b85450;fillColor=default;" parent="1" vertex="1">
                    <mxGeometry x="2739" y="-790" width="80" height="40" as="geometry"/>
                </mxCell>
                <mxCell id="20" value="Content-Type: text/xml" style="text;html=1;strokeColor=#82b366;fillColor=#d5e8d4;align=center;verticalAlign=middle;whiteSpace=wrap;rounded=0;" parent="1" vertex="1">
                    <mxGeometry x="2605" y="-724" width="130" height="20" as="geometry"/>
                </mxCell>
                <mxCell id="22" value="SOAP/XML&lt;br&gt;Response" style="ellipse;shape=cloud;whiteSpace=wrap;html=1;fillColor=#d5e8d4;strokeColor=none;opacity=70;" parent="1" vertex="1">
                    <mxGeometry x="2620" y="-790" width="100" height="60" as="geometry"/>
                </mxCell>
                <mxCell id="23" value="&lt;font style=&quot;font-size: 12px;&quot;&gt;SOAPtoREST&lt;br&gt;Conversion&lt;br&gt;&lt;/font&gt;" style="rounded=1;whiteSpace=wrap;html=1;fontSize=14;strokeColor=#b85450;fillColor=default;" parent="1" vertex="1">
                    <mxGeometry x="2739" y="-890" width="80" height="40" as="geometry"/>
                </mxCell>
                <mxCell id="18" value="Content-Type: text/xml" style="text;html=1;strokeColor=#82b366;fillColor=#d5e8d4;align=center;verticalAlign=middle;whiteSpace=wrap;rounded=0;" parent="1" vertex="1">
                    <mxGeometry x="2605" y="-970" width="130" height="20" as="geometry"/>
                </mxCell>
                <mxCell id="27" value="Content-Type: application/json" style="text;html=1;strokeColor=#82b366;fillColor=#d5e8d4;align=center;verticalAlign=middle;whiteSpace=wrap;rounded=0;" parent="1" vertex="1">
                    <mxGeometry x="2840" y="-946" width="180" height="20" as="geometry"/>
                </mxCell>
                <mxCell id="28" value="SOAP/XML&lt;br&gt;Request" style="ellipse;shape=cloud;whiteSpace=wrap;html=1;fillColor=#d5e8d4;strokeColor=none;opacity=70;" parent="1" vertex="1">
                    <mxGeometry x="2620" y="-922" width="100" height="60" as="geometry"/>
                </mxCell>
                <mxCell id="30" value="Content-Type: application/json" style="text;html=1;strokeColor=#82b366;fillColor=#d5e8d4;align=center;verticalAlign=middle;whiteSpace=wrap;rounded=0;" parent="1" vertex="1">
                    <mxGeometry x="2840" y="-716" width="180" height="20" as="geometry"/>
                </mxCell>
                <mxCell id="26" value="" style="shape=flexArrow;endArrow=classic;html=1;fillColor=#f5f5f5;strokeColor=#666666;exitX=1;exitY=0.5;exitDx=0;exitDy=0;" parent="1" source="23" edge="1">
                    <mxGeometry width="50" height="50" relative="1" as="geometry">
                        <mxPoint x="3000" y="-860" as="sourcePoint"/>
                        <mxPoint x="3020" y="-870" as="targetPoint"/>
                    </mxGeometry>
                </mxCell>
                <mxCell id="29" value="REST/JSON&lt;br&gt;Request" style="ellipse;shape=cloud;whiteSpace=wrap;html=1;fillColor=#d5e8d4;strokeColor=none;opacity=70;" parent="1" vertex="1">
                    <mxGeometry x="2865" y="-930" width="100" height="60" as="geometry"/>
                </mxCell>
                <mxCell id="21" value="REST/JSON&lt;br&gt;Response" style="ellipse;shape=cloud;whiteSpace=wrap;html=1;fillColor=#d5e8d4;strokeColor=none;opacity=70;" parent="1" vertex="1">
                    <mxGeometry x="2865" y="-770" width="100" height="60" as="geometry"/>
                </mxCell>
                <mxCell id="31" value="Content-Type: application/soap+xml" style="text;html=1;strokeColor=#82b366;fillColor=#d5e8d4;align=center;verticalAlign=middle;whiteSpace=wrap;rounded=0;" vertex="1" parent="1">
                    <mxGeometry x="2605" y="-951" width="130" height="30" as="geometry"/>
                </mxCell>
                <mxCell id="32" value="Content-Type: application/soap+xml" style="text;html=1;strokeColor=#82b366;fillColor=#d5e8d4;align=center;verticalAlign=middle;whiteSpace=wrap;rounded=0;" vertex="1" parent="1">
                    <mxGeometry x="2605" y="-704" width="130" height="30" as="geometry"/>
                </mxCell>
            </root>
        </mxGraphModel>
    </diagram>
</mxfile>